<svg width="27" height="27" viewBox="0 0 27 27" fill="none" xmlns="http://www.w3.org/2000/svg">
<path d="M3.70463 23.2954C3.49372 23.0844 3.37524 22.7983 3.37524 22.5C3.37524 22.2017 3.49372 21.9156 3.70463 21.7046L19.7843 5.625H13.5C13.2016 5.625 12.9155 5.50647 12.7045 5.29549C12.4935 5.08452 12.375 4.79837 12.375 4.5C12.375 4.20163 12.4935 3.91548 12.7045 3.7045C12.9155 3.49353 13.2016 3.375 13.5 3.375H22.5C22.7984 3.375 23.0845 3.49353 23.2955 3.7045C23.5065 3.91548 23.625 4.20163 23.625 4.5V13.5C23.625 13.7984 23.5065 14.0845 23.2955 14.2955C23.0845 14.5065 22.7984 14.625 22.5 14.625C22.2016 14.625 21.9155 14.5065 21.7045 14.2955C21.4935 14.0845 21.375 13.7984 21.375 13.5V7.21575L5.29538 23.2954C5.08441 23.5063 4.79831 23.6248 4.5 23.6248C4.20169 23.6248 3.9156 23.5063 3.70463 23.2954Z" fill="white"/>
</svg>
