<svg width="101" height="101" viewBox="0 0 101 101" fill="none" xmlns="http://www.w3.org/2000/svg">
<circle cx="50.5" cy="50.5" r="50.5" fill="white" fill-opacity="0.41"/>
<g clip-path="url(#clip0_273_466)">
<path d="M78.4189 56.3788C78.1503 55.9838 77.6129 55.8826 77.2191 56.1519C75.1313 57.5836 73.0418 59.1076 71.0068 60.6819C70.7139 60.9092 70.1845 61.0838 70.0048 60.8294L62.9706 50.0595C63.0516 49.9078 63.1952 49.7372 63.4283 49.5954C64.9346 48.6746 66.4351 47.7167 67.8875 46.7486C68.285 46.484 68.3933 45.9459 68.1295 45.5467C67.8664 45.1484 67.3301 45.0392 66.933 45.3041C65.4986 46.2595 64.0176 47.2052 62.5319 48.1133C62.0291 48.4194 61.641 48.8451 61.4069 49.3237C61.3105 49.3237 40.3748 49.3237 40.4729 49.3237C40.239 48.8452 39.8512 48.4198 39.3495 48.1146C37.8621 47.2054 36.381 46.2596 34.9468 45.3041C34.55 45.0379 34.0142 45.1475 33.7503 45.5467C33.4864 45.9459 33.5947 46.4839 33.9923 46.7486C35.4447 47.7167 36.9452 48.6747 38.4531 49.5967C38.6659 49.7261 38.8856 50.0215 38.8858 50.0215C38.2596 50.9884 36.5046 53.6985 32.0857 60.5219C31.9994 60.557 31.807 61.4056 30.872 60.6811C28.8378 59.1077 26.7484 57.5837 24.6607 56.1519C24.2674 55.8819 23.7302 55.9831 23.4608 56.3788C23.1919 56.7743 23.293 57.3136 23.6868 57.5837C25.7471 58.9972 27.8099 60.5013 29.8171 62.0536C30.9677 62.9471 32.5413 62.9187 33.2999 61.8089L33.6653 61.2746C34.5335 62.0683 34.7177 62.4617 35.0566 63.2202C34.8469 63.384 34.6491 63.5672 34.4834 63.7917C33.5116 65.1108 33.7612 66.9985 35.1095 68.0006L35.2175 68.0806C35.7819 68.4998 36.4389 68.7151 37.272 68.6371C37.3377 69.4967 37.7465 70.3252 38.4891 70.8771C39.1195 71.3456 39.8951 71.5762 40.8161 71.4212C40.918 72.2243 41.3274 72.9867 42.0249 73.5051C42.6934 74.0022 43.5246 74.2308 44.4762 74.0304C44.6022 74.6978 44.9604 75.3226 45.5456 75.7577C46.0427 76.1271 46.6233 76.3054 47.1991 76.3054C47.9419 76.3054 48.6645 75.9922 49.2024 75.4272C50.6861 76.2478 52.4466 75.7506 53.3358 74.449C53.625 74.0261 53.8047 73.5504 53.8674 73.0554L54.2658 73.3408C55.7065 74.3336 57.6799 73.9635 58.6677 72.5188C58.9577 72.0949 59.1374 71.6178 59.1997 71.1216C60.607 71.9601 62.4632 71.5848 63.4208 70.1844C63.7124 69.7582 63.8925 69.2782 63.954 68.779L63.9835 68.7993C65.424 69.7921 67.398 69.4224 68.3858 67.9777C69.3689 66.5392 69.0097 64.5677 67.5868 63.5711L67.4391 63.4576L69.1996 62.3875C70.0935 62.9212 71.226 62.7031 72.0617 62.0543C74.0698 60.5012 76.1327 58.9971 78.1929 57.5836C78.5868 57.3134 78.6879 56.7741 78.4189 56.3788ZM38.17 66.1414C38.0814 66.2643 37.8288 66.6148 37.8156 66.6335C37.377 67.0058 36.7262 67.0444 36.2441 66.6861C36.2437 66.6855 36.2433 66.6855 36.2428 66.6851L36.1362 66.6059C35.5738 66.1881 35.4549 65.3884 35.8714 64.8238C36.2854 64.2623 37.0807 64.1371 37.6472 64.5583L37.7539 64.6374C38.2294 64.9909 38.3836 65.6152 38.17 66.1414ZM41.3854 69.2035C40.9463 69.7984 40.1122 69.9246 39.517 69.4833C38.9451 69.0585 38.8143 68.2614 39.1995 67.6721C39.3371 67.5204 39.9744 66.6157 40.2029 66.2983C40.6477 65.6957 41.4852 65.5824 42.0714 66.0184C42.6635 66.4585 42.7883 67.2994 42.351 67.8937L41.3854 69.2035ZM44.9209 71.8316C44.473 72.4383 43.6336 72.5433 43.0528 72.1114C42.4578 71.6688 42.3351 70.8303 42.7733 70.2353L44.5967 67.7622C45.0335 67.1695 45.8709 67.0401 46.4653 67.4819C47.0571 67.9222 47.1823 68.7641 46.7442 69.3581L44.9209 71.8316ZM48.3042 73.8017L48.0533 74.1416C47.7056 74.6133 47.0412 74.7131 46.5735 74.3639C46.1047 74.0154 46.0052 73.3488 46.3522 72.8775L46.6029 72.5376C46.9504 72.066 47.6145 71.9676 48.0833 72.3153C48.553 72.6647 48.6523 73.3295 48.3042 73.8017ZM66.9622 66.9962C66.5137 67.6528 65.6169 67.8213 64.9567 67.3666L55.9908 61.2055C55.5982 60.9337 55.0602 61.0349 54.7904 61.4294C54.6875 61.5797 54.6383 61.7511 54.6387 61.9204C54.6391 62.196 54.7697 62.4669 55.0135 62.6347L61.6258 67.194C62.2717 67.6382 62.4543 68.5349 61.9972 69.2026C61.55 69.8583 60.6554 70.0304 59.9968 69.5765L53.384 65.0176C53.048 64.7843 52.5957 64.8221 52.3002 65.1039L52.2311 65.1699C52.0409 65.352 51.943 65.611 51.9663 65.874C51.9895 66.1374 52.1303 66.3752 52.3495 66.5213L56.8722 69.5287C57.5278 69.9803 57.6946 70.8788 57.2445 71.5373C56.7947 72.1939 55.8971 72.3612 55.2559 71.9196L50.9991 68.872C50.6145 68.5976 50.0808 68.6828 49.8021 69.0646C49.5226 69.4465 49.6001 69.9829 49.9762 70.269L51.5407 71.4586C52.1946 71.9099 52.3616 72.8108 51.9121 73.4678C51.4972 74.0754 50.7008 74.2581 50.1156 73.9643C50.4662 72.7832 50.0242 71.6008 49.1107 70.9214C48.7959 70.6877 48.4476 70.5329 48.0884 70.4493L48.1321 70.3897C49.1365 69.0275 48.8497 67.0975 47.4926 66.0883C46.4689 65.3276 45.1256 65.3058 44.0953 65.9247C43.8905 65.4249 43.5623 64.9691 43.0992 64.6247C42.4414 64.1358 41.6333 63.9334 40.8243 64.0546C40.4299 64.1137 40.0597 64.2489 39.7259 64.4457C39.5184 63.9751 39.204 63.5578 38.7804 63.243L38.6737 63.1638C38.0744 62.7181 37.3632 62.5442 36.6719 62.596C36.1899 61.5263 35.8762 60.9048 34.6682 59.8471C43.3572 47.0801 39.2016 53.186 40.3727 51.4652C40.4603 51.3372 40.5273 51.1997 40.5819 51.0574H44.4908C42.6445 52.1224 41.4976 54.0997 41.4976 56.2415V57.3218C41.4976 58.72 42.8468 59.7107 44.1738 59.2938C45.1426 58.9903 45.9454 58.2794 46.4951 57.238C47.626 55.0936 50.5895 55.087 51.8262 56.7952C52.4682 57.6821 53.717 58.7392 56.0177 58.7392C56.9224 58.7392 57.7968 59.0085 58.5468 59.5181L65.3329 64.1319C65.337 64.1349 65.3413 64.1379 65.3455 64.1409L66.5866 64.9846C66.5878 64.9854 66.5888 64.9862 66.59 64.9871C67.2443 65.438 67.4111 66.3393 66.9622 66.9962ZM65.8555 62.3934L59.5147 58.0822C58.4781 57.3778 57.2685 57.0052 56.0177 57.0052C54.7542 57.0052 53.814 56.5912 53.2229 55.7755C51.2529 53.0532 46.7117 53.1229 44.969 56.426C44.6325 57.0639 44.1919 57.4717 43.6599 57.6385C43.4395 57.7063 43.2244 57.5463 43.2244 57.3218V56.2415C43.2244 54.7028 44.0557 53.2812 45.394 52.5309L48.023 51.0573H61.2983C61.353 51.1995 61.4202 51.337 61.5077 51.465L68.0625 61.0519L65.8555 62.3934Z" fill="white"/>
<path d="M50.9368 45.351C56.0356 45.351 60.184 41.1892 60.184 36.0741C60.184 30.959 56.0356 26.7977 50.9368 26.7977C45.8426 26.7977 41.698 30.959 41.698 36.0741C41.698 41.1892 45.8426 45.351 50.9368 45.351ZM50.9368 28.5316C55.0836 28.5316 58.4571 31.9152 58.4571 36.0741C58.4571 40.2334 55.0836 43.617 50.9368 43.617C46.7946 43.617 43.4249 40.2334 43.4249 36.0741C43.4248 31.9152 46.7946 28.5316 50.9368 28.5316Z" fill="white"/>
<path d="M49.0508 38.7362C49.3873 39.0741 49.934 39.0753 50.2716 38.7362L54.3521 34.6388C54.6895 34.3 54.6895 33.7515 54.3521 33.4128C54.0148 33.0741 53.4685 33.0741 53.1313 33.4128L49.6612 36.8968L48.7476 35.9795C48.4103 35.6408 47.864 35.6408 47.5267 35.9795C47.1894 36.3178 47.1894 36.8668 47.5267 37.2054L49.0508 38.7362Z" fill="white"/>
</g>
<defs>
<clipPath id="clip0_273_466">
<rect width="56" height="51" fill="white" transform="translate(23 26)"/>
</clipPath>
</defs>
</svg>
