<svg width="17" height="17" viewBox="0 0 17 17" fill="none" xmlns="http://www.w3.org/2000/svg">
<path d="M15.8558 12.3903L13.8616 10.7884C13.4039 10.4287 12.75 10.3961 12.2923 10.7557L10.5923 11.998C10.3962 12.1614 10.102 12.1287 9.90581 11.9326L7.35581 9.64413L5.06735 7.09413C4.87119 6.89797 4.87119 6.63644 5.00196 6.40759L6.24427 4.70759C6.60389 4.2499 6.57119 3.59605 6.21158 3.13836L4.60965 1.14413C4.11927 0.555667 3.23658 0.490282 2.68081 1.04605L0.980809 2.74605C0.71927 3.00759 0.588501 3.3672 0.588501 3.72682C0.751962 7.06144 2.25581 10.2326 4.47889 12.4557C6.70196 14.6787 9.87312 16.1826 13.2077 16.3461C13.5673 16.3787 13.927 16.2153 14.1885 15.9537L15.8885 14.2537C16.5097 13.7634 16.477 12.848 15.8558 12.3903Z" fill="#277DFF"/>
</svg>
