<svg width="15" height="15" viewBox="0 0 15 15" fill="none" xmlns="http://www.w3.org/2000/svg">
<path d="M14.5 0.500015L14.9596 0.696975C15.0401 0.509053 14.9981 0.291031 14.8536 0.146462C14.709 0.00189158 14.491 -0.0400956 14.303 0.0404421L14.5 0.500015ZM0.500004 6.50001L0.303044 6.04044C0.130461 6.1144 0.0138657 6.27882 0.00115182 6.46615C-0.011562 6.65349 0.0817496 6.83215 0.242756 6.92876L0.500004 6.50001ZM8.5 14.5L8.07125 14.7572C8.16786 14.9183 8.34652 15.0116 8.53386 14.9989C8.72119 14.9861 8.88561 14.8695 8.95957 14.697L8.5 14.5ZM14.303 0.0404421L0.303044 6.04044L0.696964 6.95958L14.697 0.959588L14.303 0.0404421ZM0.242756 6.92876L5.24275 9.92876L5.75725 9.07126L0.757252 6.07126L0.242756 6.92876ZM5.07125 9.75726L8.07125 14.7572L8.92875 14.2428L5.92875 9.24276L5.07125 9.75726ZM8.95957 14.697L14.9596 0.696975L14.0404 0.303055L8.04043 14.303L8.95957 14.697ZM14.1464 0.146462L5.14645 9.14646L5.85355 9.85356L14.8536 0.853568L14.1464 0.146462Z" fill="white"/>
</svg>
