<svg width="99" height="31" viewBox="0 0 99 31" fill="none" xmlns="http://www.w3.org/2000/svg">
<path d="M14.18 2.09V4.31H8.48V23H5.75V4.31H0.0200001V2.09H14.18ZM20.2705 9.23C20.7505 8.29 21.4305 7.56 22.3105 7.04C23.2105 6.52 24.3005 6.26 25.5805 6.26V9.08H24.8605C21.8005 9.08 20.2705 10.74 20.2705 14.06V23H17.5405V6.56H20.2705V9.23ZM30.1419 3.89C29.6219 3.89 29.1819 3.71 28.8219 3.35C28.4619 2.99 28.2819 2.55 28.2819 2.03C28.2819 1.51 28.4619 1.07 28.8219 0.709999C29.1819 0.349999 29.6219 0.169999 30.1419 0.169999C30.6419 0.169999 31.0619 0.349999 31.4019 0.709999C31.7619 1.07 31.9419 1.51 31.9419 2.03C31.9419 2.55 31.7619 2.99 31.4019 3.35C31.0619 3.71 30.6419 3.89 30.1419 3.89ZM31.4619 6.56V23H28.7319V6.56H31.4619ZM38.8447 9.59C39.3847 8.65 40.1847 7.87 41.2447 7.25C42.3247 6.61 43.5747 6.29 44.9947 6.29C46.4547 6.29 47.7747 6.64 48.9547 7.34C50.1547 8.04 51.0947 9.03 51.7747 10.31C52.4547 11.57 52.7947 13.04 52.7947 14.72C52.7947 16.38 52.4547 17.86 51.7747 19.16C51.0947 20.46 50.1547 21.47 48.9547 22.19C47.7747 22.91 46.4547 23.27 44.9947 23.27C43.5947 23.27 42.3547 22.96 41.2747 22.34C40.2147 21.7 39.4047 20.91 38.8447 19.97V30.8H36.1147V6.56H38.8447V9.59ZM50.0047 14.72C50.0047 13.48 49.7547 12.4 49.2547 11.48C48.7547 10.56 48.0747 9.86 47.2147 9.38C46.3747 8.9 45.4447 8.66 44.4247 8.66C43.4247 8.66 42.4947 8.91 41.6347 9.41C40.7947 9.89 40.1147 10.6 39.5947 11.54C39.0947 12.46 38.8447 13.53 38.8447 14.75C38.8447 15.99 39.0947 17.08 39.5947 18.02C40.1147 18.94 40.7947 19.65 41.6347 20.15C42.4947 20.63 43.4247 20.87 44.4247 20.87C45.4447 20.87 46.3747 20.63 47.2147 20.15C48.0747 19.65 48.7547 18.94 49.2547 18.02C49.7547 17.08 50.0047 15.98 50.0047 14.72ZM79.9681 6.26L75.4381 23H69.7681L67.1281 12.14L64.3981 23H58.7581L54.1981 6.26H59.3281L61.6981 18.23L64.5181 6.26H69.9481L72.7981 18.17L75.1381 6.26H79.9681ZM80.9045 14.6C80.9045 12.88 81.2245 11.37 81.8645 10.07C82.5245 8.77 83.4145 7.77 84.5345 7.07C85.6545 6.37 86.9045 6.02 88.2845 6.02C89.4645 6.02 90.4945 6.26 91.3745 6.74C92.2745 7.22 92.9645 7.85 93.4445 8.63V6.26H98.5745V23H93.4445V20.63C92.9445 21.41 92.2445 22.04 91.3445 22.52C90.4645 23 89.4345 23.24 88.2545 23.24C86.8945 23.24 85.6545 22.89 84.5345 22.19C83.4145 21.47 82.5245 20.46 81.8645 19.16C81.2245 17.84 80.9045 16.32 80.9045 14.6ZM93.4445 14.63C93.4445 13.35 93.0845 12.34 92.3645 11.6C91.6645 10.86 90.8045 10.49 89.7845 10.49C88.7645 10.49 87.8945 10.86 87.1745 11.6C86.4745 12.32 86.1245 13.32 86.1245 14.6C86.1245 15.88 86.4745 16.9 87.1745 17.66C87.8945 18.4 88.7645 18.77 89.7845 18.77C90.8045 18.77 91.6645 18.4 92.3645 17.66C93.0845 16.92 93.4445 15.91 93.4445 14.63Z" fill="white"/>
</svg>
